<?xml version="1.0" encoding="utf-8"?>
<?xml-stylesheet type="text/xsl" href="rss1.xsl"?>
<rss version="2.0" xmlns:atom="http://www.w3.org/2005/Atom" xmlns:content="http://purl.org/rss/1.0/modules/content/" xmlns:dc="http://purl.org/dc/elements/1.1/" xmlns:media="http://search.yahoo.com/mrss/">
<channel>
 <title>Getty</title>
 <link>http://www.gettyimg.com/</link>
 <atom:link href="http://www.gettyimg.com/" rel="self" type="application/rss+xml" />

 
                <item>
                <title><![CDATA[【PRORES HD】MIKA - Apocalypse Calypso [ProRes 1080]]]></title>
                <link><![CDATA[https://sharemania.us/threads/mika-apocalypse-calypso-prores-1080.238196/]]></link>
                <description><![CDATA[<article>
<blockquote class="messageText SelectQuoteContainer ugc baseHtml">
<div style="text-align: center"><img src="https://i.imgur.com/1CCviUY.gif" class="bbCodeImage LbImage" alt="[​IMG]" data-url="https://i.imgur.com/1CCviUY.gif" style=""><br>
​</div>
<div class="ToggleTriggerAnchor bbCodeSpoilerContainer">
<button type="button" class="button bbCodeSpoilerButton ToggleTrigger Tooltip JsOnly" data-target="> .SpoilerTarget"><span>Spoiler: <span class="SpoilerTitle">ProRes</span></span></button>
<div class="SpoilerTarget bbCodeSpoilerText">
<div class="bbCodeBlock bbCodeCode">
<div class="type">Code:</div>
<pre>Format                                   : MPEG-4
Format profile                           : QuickTime
Codec ID                                 : qt   0000.02 (qt  )
File size                                : 4.22 GiB
Duration                                 : 3 min 13 s
Overall bit rate mode                    : Variable
Overall bit rate                         : 187 Mb/s
Encoded date                             : UTC 2023-10-27 18:03:31
Tagged date                              : UTC 2023-10-27 18:03:31
Writing application                      : Blackmagic Design DaVinci Resolve Studio
Writing library                          : Apple QuickTime

Video
ID                                       : 1
Format                                   : ProRes
Format version                           : Version 0
Format profile                           : 422 HQ
Codec ID                                 : apch
Duration                                 : 3 min 13 s
Bit rate mode                            : Variable
Bit rate                                 : 187 Mb/s
Width                                    : 1 920 pixels
Height                                   : 1 080 pixels
Display aspect ratio                     : 16:9
Frame rate mode                          : Constant
Frame rate                               : 25.000 FPS
Color space                              : YUV
Chroma subsampling                       : 4:2:2
Scan type                                : Progressive
Bits/(Pixel*Frame)                       : 3.610
Stream size                              : 4.21 GiB (100%)
Writing library                          : Apple
Encoded date                             : UTC 2023-10-27 18:03:31
Tagged date                              : UTC 2023-10-27 18:03:31
Color primaries                          : BT.709
Transfer characteristics                 : BT.709
Matrix coefficients                      : BT.709

Audio
ID                                       : 2
Format                                   : AAC LC
Format/Info                              : Advanced Audio Codec Low Complexity
Codec ID                                 : mp4a-40-2
Duration                                 : 3 min 13 s
Bit rate mode                            : Constant
Bit rate                                 : 320 kb/s
Channel(s)                               : 2 channels
Channel layout                           : L R
Sampling rate                            : 48.0 kHz
Frame rate                               : 46.875 FPS (1024 SPF)
Compression mode                         : Lossy
Stream size                              : 7.37 MiB (0%)
Default                                  : Yes
Alternate group                          : 1
Encoded date                             : UTC 2023-10-27 18:03:31
Tagged date                              : UTC 2023-10-27 18:03:31

Other
ID                                       : 3
Type                                     : Time code
Format                                   : QuickTime TC
Duration                                 : 3 min 13 s
Frame rate                               : 25.000 FPS
Time code of first frame                 : 00:00:00:00
Time code, striped                       : Yes
Title                                    : A005R0DN
Language                                 : English
Encoded date                             : UTC 2023-10-27 18:03:31
Tagged date                              : UTC 2023-10-27 18:03:31</pre>
</div><div style="text-align: center">​</div></div>
</div><div style="text-align: center"><br>
<br>
<div class="bbCodeBlock bbCodeVfcHH HiddenContent">
<div class="attribution type">Hidden Content:</div>
<blockquote>You must reply before you can see the hidden data contained here.</blockquote>
</div></div>
<div class="messageTextEndMarker">&nbsp;</div>
</blockquote>
</article>]]></description>
                <author><![CDATA[fstambuk]]></author>
                </item>

                
                <item>
                <title><![CDATA[【Requests】[REQ AUD] - RITA ORA - Carry On, Ritual, You For Me (FLAC)]]></title>
                <link><![CDATA[https://sharemania.us/threads/rita-ora-carry-on-ritual-you-for-me-flac.238195/]]></link>
                <description><![CDATA[<article>
<blockquote class="messageText SelectQuoteContainer ugc baseHtml">
Hi all,<br>
<br>
I am checking if anyone have these three Rita Ora's track in lossless format (WAV/FLAC will do).<br>
Thanks!<br>
<br>
Kygo and Rita Ora - Carry On (from the 2019 film <i>Pokemon Detective Pikachu</i>)<br>
Tiësto, Jonas Blue and Rita Ora - Ritual<br>
Sigala and Rita Ora - You For Me
<div class="messageTextEndMarker">&nbsp;</div>
</blockquote>
</article>]]></description>
                <author><![CDATA[himxxhim]]></author>
                </item>

                </channel></rss>